<svg width="666" height="179" viewBox="0 0 666 179" fill="none" xmlns="http://www.w3.org/2000/svg">
<mask id="mask0_1050_100" style="mask-type:luminance" maskUnits="userSpaceOnUse" x="0" y="0" width="205" height="179">
<path d="M204.339 0H0V179H204.339V0Z" fill="white"/>
</mask>
<g mask="url(#mask0_1050_100)">
<path d="M193.195 76.4203L191.456 74.761L199.675 74.4439L198.885 38.321C191.536 38.1635 179.682 37.8464 172.331 37.7686L157.158 22.5958L134.556 0L125.941 0.157564C121.199 0.157564 106.816 0.6322 94.0918 0.947327C81.368 1.33637 68.1696 1.73709 64.8511 2.05416L58.7664 2.44321L33.0038 19.2831C18.7783 28.6085 6.05652 37.1442 4.71236 38.321C2.33335 40.5425 2.26332 40.8498 0.919166 58.6389C-0.19545 72.312 -0.267424 77.1322 0.524285 78.634C4.05732 83.1009 7.85746 87.3499 11.9039 91.3577C17.7512 97.4424 22.1766 102.975 22.1766 104.002C22.1766 105.346 21.5444 120.361 21.5444 132.768L92.4344 178.446L149.651 178.998C149.889 177.654 152.655 164.852 153.287 162.718C154.157 159.557 153.367 159.32 158.502 157.898C166.643 155.527 170.277 153.23 177.468 146.281C184.739 139.01 189.243 132.53 195.962 119.412C199.855 110.809 202.669 101.757 204.338 92.4626C201.791 86.3922 197.995 80.9261 193.195 76.4203ZM189.165 90.0914C188.928 90.6438 185.687 91.1184 181.968 91.1184H175.264L172.016 95.9407C170.574 97.8139 169.477 99.9281 168.775 102.185C169.54 105.002 170.6 107.731 171.936 110.326C173.446 113.26 174.511 116.403 175.097 119.651C175.097 125.815 167.194 136.01 160.082 139.014C152.81 142.017 133.687 140.199 127.76 135.853C125.231 134.036 113.219 111.75 113.297 108.904C113.297 108.351 111.48 103.529 113.686 99.1036L109.261 89.0662C106.779 88.7127 104.358 88.0216 102.063 87.0121C96.2938 83.9308 95.1091 83.6935 93.765 81.8747C90.2432 76.229 87.0761 70.3697 84.282 64.3307L76.4583 48.8408L77.0107 42.3613C77.3998 38.8054 77.96 35.1639 78.1954 34.2205C78.67 33.1136 78.5844 32.7985 77.8063 33.1136C76.4622 34.0629 68.4809 48.7611 68.4809 50.5001C68.4809 51.2899 71.7216 62.2746 75.7521 74.8408C79.7827 87.4069 83.0234 99.1814 82.9495 100.998C82.9495 105.898 78.207 117.041 76.1529 117.358C74.2563 117.595 16.6444 72.4695 14.3529 68.9914C13.3258 67.41 13.1683 65.0407 13.641 58.4016C14.1156 50.8152 14.4307 49.4711 16.5588 47.2593C18.7725 44.9679 49.3554 21.9714 59.5484 15.0152C63.184 12.4864 64.9231 12.0118 71.8773 11.3796C80.4129 10.6676 106.176 9.48299 120.164 9.32543L128.462 9.16787L136.998 18.0187C141.74 22.9187 149.721 31.5322 154.937 37.1442C155.094 37.3017 155.174 37.4612 155.326 37.6188L140.231 37.4612L99.2933 36.4341L101.433 77.8442L142.528 77.0544L140.869 46.4696L159.994 47.3391C160.311 47.8915 161.101 58.7187 161.496 61.3272C161.733 63.6187 163.55 65.4375 173.587 74.1307C187.655 86.3021 189.947 88.8309 189.149 90.0952" fill="#754CE3"/>
</g>
<path d="M284.032 36.298H259.878L247.135 49.0412V145.739L259.878 158.482H284.032C287.228 158.46 290.288 157.181 292.548 154.92C294.808 152.66 296.087 149.6 296.108 146.404V122.252C296.087 119.055 294.808 115.996 292.548 113.735C290.288 111.475 287.228 110.195 284.032 110.174H259.878V84.6136H284.032C287.228 84.5922 290.288 83.3128 292.548 81.0523C294.808 78.7918 296.087 75.7322 296.108 72.5357V48.376C296.087 45.1798 294.808 42.1205 292.549 39.86C290.289 37.5996 287.23 36.32 284.034 36.298M283.369 145.739H259.88V122.917H283.367L283.369 145.739ZM283.369 71.8627H259.88V49.0412H283.367L283.369 71.8627Z" fill="#754CE3"/>
<path d="M315.007 36.4244H302.264V84.7303H315.007V36.4244Z" fill="#754CE3"/>
<path d="M347.411 70.2403L359.238 84.7323H372.3V80.5676L355.643 60.1621L347.411 50.4184L335.584 36.4303H322.508V40.595L339.165 60.164L322.508 80.5695V84.7323H335.584L347.411 70.2403Z" fill="#754CE3"/>
<path d="M390.716 84.7303H427.613V71.9871H391.381V66.9898H427.611V48.4985C427.59 45.3023 426.311 42.243 424.052 39.9825C421.792 37.7221 418.733 36.4425 415.537 36.4205H390.716C387.525 36.4609 384.477 37.7464 382.221 40.0028C379.964 42.2592 378.679 45.3079 378.64 48.4985V72.6543C378.68 75.8445 379.965 78.8927 382.221 81.1487C384.477 83.4047 387.525 84.69 390.716 84.7303ZM391.381 51.9162V49.1715H414.868V55.8359H391.381V51.9162Z" fill="#754CE3"/>
<path d="M247.135 36.3H234.392V49.0432H247.135V36.3Z" fill="#754CE3"/>
<path d="M372.3 36.4264H359.141V49.5859H372.3V36.4264Z" fill="#754CE3"/>
<path d="M447.017 71.9871V20.5164H434.19V72.6485C434.231 75.8391 435.516 78.8875 437.773 81.1436C440.029 83.3996 443.078 84.6847 446.268 84.7245H456.763V71.9871H447.017Z" fill="#754CE3"/>
<path d="M494.157 110.176H470.005C466.808 110.197 463.748 111.476 461.487 113.737C459.227 115.997 457.948 119.057 457.927 122.254V146.408C457.948 149.605 459.227 152.665 461.487 154.925C463.748 157.186 466.808 158.465 470.005 158.486H494.157L506.9 145.742V97.3918H494.157V110.176ZM494.157 145.739H470.67V122.919H494.157V145.739Z" fill="#754CE3"/>
<path d="M306.096 113.763C304.951 114.859 304.042 116.179 303.426 117.64C302.81 119.101 302.5 120.672 302.515 122.258V158.484H315.258V122.921H341.324V110.178H314.675C313.076 110.157 311.49 110.465 310.015 111.08C308.539 111.696 307.206 112.608 306.096 113.759" fill="#754CE3"/>
<path d="M383.967 110.176H359.152C355.961 110.216 352.913 111.501 350.657 113.758C348.4 116.014 347.116 119.063 347.076 122.254V146.406C347.116 149.596 348.4 152.645 350.657 154.902C352.913 157.159 355.961 158.444 359.152 158.484H396.059V145.741H359.815V140.741H396.045V122.248C396.023 119.052 394.744 115.993 392.483 113.733C390.223 111.473 387.164 110.197 383.967 110.176ZM383.302 125.664V129.578H359.813V122.913H383.3L383.302 125.664Z" fill="#754CE3"/>
<path d="M439.52 110.176H414.703C411.512 110.215 408.463 111.5 406.206 113.757C403.949 116.014 402.664 119.063 402.625 122.254V146.406C402.664 149.597 403.949 152.646 406.206 154.903C408.463 157.159 411.512 158.444 414.703 158.484H451.598V145.74H415.364V140.743H451.594V122.25C451.573 119.053 450.294 115.993 448.034 113.733C445.773 111.472 442.713 110.193 439.516 110.172M438.851 125.662V129.576H415.364V122.909H438.851V125.662Z" fill="#754CE3"/>
<path d="M550.79 110.176H525.971C522.78 110.216 519.731 111.501 517.475 113.758C515.219 116.014 513.934 119.063 513.895 122.254V146.406C513.934 149.596 515.219 152.645 517.475 154.902C519.731 157.158 522.78 158.444 525.971 158.484H562.866V145.74H526.64V140.743H562.87V122.25C562.849 119.053 561.57 115.994 559.31 113.733C557.05 111.473 553.99 110.193 550.794 110.172M550.128 125.662V129.576H526.64V122.909H550.128V125.662Z" fill="#754CE3"/>
<path d="M574.608 113.763C573.463 114.859 572.554 116.179 571.938 117.64C571.322 119.101 571.012 120.672 571.027 122.258V158.484H583.774V122.921H609.84V110.178H583.19C581.592 110.157 580.006 110.465 578.53 111.08C577.055 111.696 575.722 112.608 574.612 113.759" fill="#754CE3"/>
<path d="M652.397 124.666H665.224V122.25C665.184 119.045 663.888 115.984 661.613 113.725C659.339 111.466 656.269 110.19 653.064 110.172H628.243C625.052 110.212 622.004 111.498 619.748 113.754C617.492 116.011 616.207 119.059 616.167 122.25V128.669C616.207 131.859 617.493 134.908 619.749 137.164C622.005 139.42 625.053 140.705 628.243 140.745H652.395V145.742H628.91V143.992H616.167V146.406C616.207 149.596 617.492 152.645 619.748 154.901C622.004 157.158 625.052 158.443 628.243 158.484H653.062C656.267 158.466 659.337 157.19 661.612 154.931C663.886 152.672 665.182 149.611 665.222 146.406V139.987C665.183 136.781 663.886 133.719 661.612 131.46C659.338 129.201 656.268 127.925 653.062 127.907H628.91V122.909H652.397V124.66V124.666Z" fill="#754CE3"/>
<path d="M519.642 84.6486H506.898V97.3918H519.642V84.6486Z" fill="#754CE3"/>
</svg>
